<?xml version="1.0" encoding="utf-8"?><svg xml:space="preserve" viewBox="0 0 100 100" y="0" x="0" xmlns="http://www.w3.org/2000/svg" id="圖層_1" version="1.1" width="47px" height="47px" xmlns:xlink="http://www.w3.org/1999/xlink" style="width:100%;height:100%;background-size:initial;background-repeat-y:initial;background-repeat-x:initial;background-position-y:initial;background-position-x:initial;background-origin:initial;background-color:initial;background-clip:initial;background-attachment:initial;animation-play-state:paused" ><g class="ldl-scale" style="transform-origin:50% 50%;transform:rotate(0deg) scale(0.8, 0.8);animation-play-state:paused" ><g style="animation-play-state:paused" ><g style="animation-play-state:paused" ><path stroke-linejoin="round" stroke-linecap="round" stroke-width="3.5" stroke="#333" fill="none" d="M50 85c-19.33 0-35-15.67-35-35s15.67-35 35-35a34.832 34.832 0 0 1 17.45 4.654" style="stroke:rgb(51, 51, 51);animation-play-state:paused" ></path>
<g style="animation-play-state:paused" ><path d="M72.598 10.375L59.874 27.408l14.874-2.156z" fill="#333" style="fill:rgb(51, 51, 51);animation-play-state:paused" ></path></g></g></g>
<g style="animation-play-state:paused" ><g style="animation-play-state:paused" ><path stroke-linejoin="round" stroke-linecap="round" stroke-width="3.5" stroke="#333" fill="none" d="M80.396 32.636a34.82 34.82 0 0 1 2.165 4.5" style="stroke:rgb(51, 51, 51);animation-play-state:paused" ></path>
<path stroke-dasharray="9.0185,9.0185" stroke-linejoin="round" stroke-linecap="round" stroke-width="3.5" stroke="#333" fill="none" d="M84.758 45.86c.16 1.358.242 2.739.242 4.14 0 16.074-10.836 29.618-25.602 33.724" style="stroke:rgb(51, 51, 51);animation-play-state:paused" ></path>
<path stroke-linejoin="round" stroke-linecap="round" stroke-width="3.5" stroke="#333" fill="none" d="M54.987 84.647A35.206 35.206 0 0 1 50 85" style="stroke:rgb(51, 51, 51);animation-play-state:paused" ></path></g></g>
<g style="animation-play-state:paused" ><path stroke-miterlimit="10" stroke-width="3.5" stroke="#f47e60" fill="#fff" d="M60.148 39.82v-5.362H39.852v5.362c0 2.578 1.696 4.853 4.292 6.235 1.554.828 2.482 2.168 2.482 3.601v.687c0 1.434-.929 2.774-2.482 3.601-2.595 1.383-4.292 3.658-4.292 6.235v5.362h20.295V60.18c0-2.578-1.696-4.853-4.292-6.235-1.554-.828-2.482-2.168-2.482-3.601v-.687c0-1.434.929-2.774 2.482-3.601 2.596-1.384 4.293-3.659 4.293-6.236z" style="stroke:rgb(247, 108, 108);fill:rgb(255, 255, 255);animation-play-state:paused" ></path>
<path d="M35.862 34.427h28.276" stroke-miterlimit="10" stroke-linecap="round" stroke-width="3.5" stroke="#f47e60" fill="none" style="stroke:rgb(247, 108, 108);animation-play-state:paused" ></path>
<path d="M35.862 65.573h28.276" stroke-miterlimit="10" stroke-linecap="round" stroke-width="3.5" stroke="#f47e60" fill="none" style="stroke:rgb(247, 108, 108);animation-play-state:paused" ></path></g>
</g><!-- generated by https://loading.io/ --></svg>